<svg id="Camada_1" data-name="Camada 1" xmlns="http://www.w3.org/2000/svg" viewBox="0 0 723.73192 735.95069"><defs><style>.cls-1{fill:#292929;}.cls-2{fill:#2a2a2a;}.cls-3{fill:#64abde;}.cls-4{fill:#eb6464;}.cls-5{fill:#f7eb67;}</style></defs><path class="cls-1" d="M285.12146,36.971a225.04574,225.04574,0,0,1,46.55725,4.86912c2.36959.49772,4.11828-.38588,6.09825-1.3608,41.77726-20.571,85.27264-28.5121,131.17224-17.18145,23.64824,5.83774,44.54381,17.26588,63.25668,32.78547,2.90762,2.41143,5.56889,4.43558,9.97075,4.58257,41.5286,1.38672,80.491,11.71582,115.4572,34.88414,32.87592,21.78332,54.71492,52.00317,66.89735,89.34462a26.98745,26.98745,0,0,0,8.35619,12.95313c16.1272,13.8584,26.85854,31.58329,34.3364,51.32608,11.24625,29.69221,15.10759,60.55781,10.70689,91.82169-4.17246,29.64225-15.992,56.33674-38.51257,77.11234-17.88753,16.50158-39.46593,24.07037-63.55343,25.22038-29.52754,1.40974-57.31189-6.05949-84.47326-16.55967-3.49737-1.352-5.49581-.96445-8.13789,1.67926-25.68894,25.70506-55.13659,45.51258-90.21447,56.00254Q433.52234,502.24884,379.55,471.10692a12.14926,12.14926,0,0,0-8.04961-1.42463c-25.83131,3.02653-51.5002,2.7733-76.44659-5.61819-22.08562-7.42917-38.37223-21.04445-44.53978-44.53784-2.56037-9.753-3.63508-19.82467-1.8284-29.70049,1.76237-9.63367,7.63243-17.63439,13.32078-25.42568,15.28018-20.92928,35.1172-34.70876,61.26143-38.2128,2.53817-.34022,3.56756-1.37929,4.21168-3.90518a83.53712,83.53712,0,0,1,10.96152-25.0354c14.55827-22.38673,35.3525-30.09034,61.12558-25.97226a103.26328,103.26328,0,0,1,27.06678,8.43276c3.09538,1.43168,4.97736.92513,7.567-.9253,23.66893-16.91293,49.68627-25.1755,78.93932-20.58622,18.01951,2.82693,33.77281,10.82514,47.9485,22.07056,3.71775,2.94927,7.4739,5.43733,12.34174,5.9877,4.37095.4942,8.59546.26665,11.14228-3.73109,2.735-4.29309,3.3207-9.05679.47153-13.68481-5.34723-8.68567-12.71716-15.34425-21.22943-20.78384-16.79509-10.73242-35.47247-15.78414-55.07589-17.51654-5.0376-.44518-5.88312-2.39825-5.56472-6.82428,2.18158-30.32536,18.5167-51.01459,47.81692-59.28434,21.75356-6.13973,43.99876-7.68741,66.11969-2.65527,28.38075,6.45614,44.36113,25.20786,49.75907,53.47137,2.27153,11.89354,1.99149,23.88583.94519,35.84186a8.41559,8.41559,0,0,0,3.04931,7.76032c10.81264,10.0759,20.1476,21.29557,25.27141,35.42439,5.776,15.92717,1.92543,29.85548-11.66245,39.86848-22.53157,16.60363-47.31372,21.2935-74.03257,11.99581-37.66257-13.10589-76.30807-14.12095-115.2939-9.32668-17.04972,2.09673-31.47431,11.2841-45.50537,20.64535-10.53854,7.03114-20.1576,15.24448-29.56193,23.73219a34.84959,34.84959,0,0,1-25.713,9.00056c-11.72629-.5615-18.99651-7.79523-24.011-17.75917-3.473-6.90092-14.25815-10.77849-21.20777-7.58261-6.34313,2.917-9.22822,14.23387-4.986,21.11228,11.79189,19.11967,28.97624,29.28839,51.4576,30.22529,10.59631.44157,20.83076-1.67344,30.90411-4.77209a20.29589,20.29589,0,0,0,10.02437-6.74014c19.60309-23.31335,45.1817-36.15194,74.78786-41.42635,15.30926-2.72734,30.83683-3.66394,46.18381-1.1461,10.09666,1.65654,19.84136,5.37124,29.82264,7.84466,20.55691,5.094,41.319,8.30419,62.63627,8.08162,30.90758-.3227,52.52962-15.70246,67.98911-41.06132,16.76779-27.505,12.8875-56.134-11.30519-80.38138-6.20539-6.21939-8.28781-11.96609-7.67849-20.67233a105.34708,105.34708,0,0,0-11.409-56.57562c-13.641-26.31683-36.50048-39.70544-64.76464-44.969-23.02243-4.28741-46.05028-2.88168-68.96179.992-4.49059.75923-6.98238-.03115-9.74025-3.972-16.6579-23.80338-36.96835-43.82793-63.32406-56.65957-36.87048-17.95089-72.24238-13.04921-106.13677,8.44937-2.248,1.42589-4.8509,2.56584-6.58822,4.47711-8.16837,8.98632-17.91471,9.06429-29.232,7.68756a134.83843,134.83843,0,0,0-67.56706,8.77483c-25.702,10.38088-43.68121,28.644-54.38882,54.09792-1.38881,3.30143-2.75706,3.858-6.26478,3.298-29.54189-4.71557-56.95179-.73744-80.21109,20.13143-14.07817,12.63133-20.02509,28.25808-19.88192,47.03448.15473,20.28982,3.90078,39.22118,18.10106,54.5042a67.82016,67.82016,0,0,0,46.07149,22.16291,235.91094,235.91094,0,0,0,32.86214.33354c3.39618-.22846,5.69518-1.30262,6.88252-4.559.62528-1.71491,1.534-3.32846,2.127-5.05251,3.61414-10.50677-.73213-16.67744-11.76274-16.681-15.44625-.005-30.577-1.72427-44.58471-8.81963-21.14226-10.70922-29.19965-34.94059-18.59808-56.18468,13.1026-26.25583,37.86476-35.60289,65.50674-26.2106,11.72744,3.98477,20.934,12.807,29.84537,21.36388,26.99039,25.91678,44.48952,57.80262,57.77456,92.346,1.42891,3.71551-.9902,4.10664-3.25427,5.09157a135.28357,135.28357,0,0,0-53.339,40.82017,112.98009,112.98009,0,0,0-11.14317,17.14507c-.88909,1.68528-1.81023,3.00294-4.00739,3.18935-35.20163,2.98684-69.56182-.00189-101.6918-15.92936-36.00916-17.85052-55.63015-47.95771-62.29464-86.95764-3.23652-18.93983-4.97284-38.04925.48583-56.94678C71.17658,167.847,97.01558,138.8863,132.908,118.1896c6.63137-3.82385,14.22183-6.163,20.35761-10.44595,6.15257-4.29471,8.186-12.61778,12.94239-18.615,22.19094-27.98025,51.41962-43.56611,86.143-49.68447A185.879,185.879,0,0,1,285.12146,36.971Z" transform="translate(-55.97367 -18.11856)"/><path class="cls-1" d="M377.86011,692.09009c4.345-13.2963,8.75438-26.56111,18.28294-37.31093,5.82531-6.572,12.99954-8.35649,21.23772-5.7186,8.68386,2.78044,12.46783,9.3715,13.44807,18.00563,1.17452,10.345-.63834,20.59062-.97728,30.88516-.42153,12.80112-.71577,25.60651-1.14656,38.40739-.15571,4.62787.25984,9.87833-4.44647,12.51488-5.20495,2.916-10.3521.697-15.08266-2.02928a11.45886,11.45886,0,0,1-5.84415-8.75312c-2.8349-18.237-2.32361-36.47867-.45961-54.73461a44.36745,44.36745,0,0,0-.39849-12.44983c-3.41949,2.5485-5.03979,5.78335-6.372,9.01771-6.97619,16.93729-11.36022,34.749-17.29343,52.04167a14.06009,14.06009,0,0,0-.52611,2.94678c-.82266,7.14689-3.2461,10.29039-8.90528,11.50426-5.93212,1.27239-12.62632-1.37081-15.72527-6.24411a27.35765,27.35765,0,0,1-3.87419-11.71807c-2.36317-19.88627-2.28836-39.81762-1.57134-59.79328.84238-23.4685,2.05829-46.87762,6.61436-69.98958,1.35352-6.86614,2.95268-13.19445,10.66159-16.064,9.54492-3.553,15.47826-.37192,16.22562,9.782.7726,10.49628-.47814,20.93544-1.93344,31.3192-3.21858,22.965-3.35678,46.09-3.75127,69.20437C376.55556,694.91667,377.86011,692.09009,377.86011,692.09009Z" transform="translate(-55.97367 -18.11856)"/><path class="cls-1" d="M192.36471,738.5118c-.603-5.44458-1.71161-10.83252-2.33448-16.27563-2.31634-20.24311-.11316-40.58924-1.925-66.90827,0-8.594.19574-23.23749-.076-37.87219-.15418-8.30219-.70215-16.65253-2.95075-24.72217-3.35-12.02258-14.60419-16.71387-25.49158-10.78418a29.978,29.978,0,0,0-11.01184,10.6214c-6.69269,10.57282-12.73285,21.54065-16.134,33.619-6.0365,21.43664-11.44183,43.05078-17.37884,64.51642-4.1659,15.062-8.78589,29.9978-13.18006,44.99682-.95831,3.27118-1.72986,6.52582,1.66718,9.04645,4.77984,3.54657,9.64856,1.48822,11.58581-4.9903,5.66718-18.95208,11.41962-37.87988,16.86768-56.8952.99713-3.48028,2.57825-4.9237,6.07776-5.196,6.1231-.4765,12.23065-1.22345,18.31982-2.04279,4.00836-.53931,5.28522.66412,5.19641,4.97064-.374,18.136-.12256,36.28882,2.3678,54.293,1.88654,13.63922,8.83954,17.67237,21.70856,13.33057C190.43874,746.61153,192.92,743.52614,192.36471,738.5118Zm-29.78479-94.70142a6.63356,6.63356,0,0,1-.2851,2.40607c.01959.257.032.51416.0351.77454.00415.3612.00549.72339.00024,1.08477-.00079.05274-.00147.07557-.0022.1081l.002.071a8.78007,8.78007,0,0,1-.02747.93054,10.25243,10.25243,0,0,1,.13257,2.65619c-.03638.56763-.1189,1.13062-.16968,1.6969-.00208.02332-.00372.04676-.00531.07019a.98853.98853,0,0,1-.01031.182l.00091.01172c.0163.1098.05182.466.05274.49518.00994.06549.03375.23156.03729.25451q.0313.20408.06195.40833c.04614.30945.09515.61877.13318.92938a9.50032,9.50032,0,0,1,.07068,1.61621,5.78383,5.78383,0,0,1-1.37214,3.73926,3.4656,3.4656,0,0,1-.48913.41754c-.05469.06506-.09253.14392-.15216.20453-1.21723,1.23785-3.36957,1.35126-4.98706,1.57727-.0177.00439-.04474.01062-.08924.02014-.12555.02686-.25433.0434-.381.06433q-.45987.07608-.921.14368c-.72626.10632-1.45514.2005-2.186.26807a11.7676,11.7676,0,0,1-2.78315.04211,29.26768,29.26768,0,0,1-4.47271.31378,8.32669,8.32669,0,0,1-1.83918.12872.6719.6719,0,0,1-.4317-.06073,3.43361,3.43361,0,0,1-.394-.07342,15.6053,15.6053,0,0,1-2.87537.05969.71358.71358,0,0,1-.15246-.08295c-.13239.00214-.26483.002-.39612-.00842a.578.578,0,0,1-.1236-.01825.87421.87421,0,0,1-.29657-.15088,1.46684,1.46684,0,0,1-.36456-.72857,4.07916,4.07916,0,0,1-.08063-1.138c.00141-.019.0752-.64539.07795-.663a4.80737,4.80737,0,0,1,.12268-.53662,9.76974,9.76974,0,0,1,.14428-1.21088c.01764-.09149.03974-.19433.06348-.29913-.00427-.24255-.00635-.47015-.0047-.49225a7.097,7.097,0,0,1,.54718-2.09253,22.21894,22.21894,0,0,1,.50617-2.20947,5.55958,5.55958,0,0,1,.28-1.26691c.0929-.37475.18109-.71826.20148-.77942.03143-.09436.0672-.17486.101-.26117.03949-.174.0849-.33972.14032-.50683q.02518-.14018.05011-.28046a5.95745,5.95745,0,0,1,.21741-1.15936,18.54452,18.54452,0,0,1,.83826-3.0423c.05377-.46271.109-.92535.17047-1.38794a4.32329,4.32329,0,0,1,.66473-1.78705,16.12979,16.12979,0,0,1,.91559-3.68878c.00635-.02008.01093-.04089.01733-.06091l.00312.00433c.05157-.14068.09875-.28314.15277-.4226.02576-.11921.03595-.2417.06634-.3595.02973-.09381.05024-.19006.07758-.28449.07294-.42535.15631-.84979.25446-1.27075.02038-.22455.048-.42755.07031-.57471a10.66881,10.66881,0,0,1,1.1875-3.40582l.00555-.013.00672-.01526.02288-.058c.0376-.24329.07575-.48645.11066-.7301a4.8804,4.8804,0,0,1,.50128-1.53687,13.33783,13.33783,0,0,1,.32929-1.47583,15.7808,15.7808,0,0,1,.51989-1.54352c.08277-.20746.17994-.40857.27137-.61218.03674-.16858.06958-.33575.11444-.50867a5.71163,5.71163,0,0,1,.259-.75024A29.14806,29.14806,0,0,1,148.372,622.335c.12189-.33411.25751-.66034.39136-.98761.25189-.66125.53247-1.31244.811-1.96319.17255-.40308.36145-.78425.54059-1.17749.01288-.05488.02325-.1084.03766-.16382a4.591,4.591,0,0,1,.62927-1.589c.02857-.12305.05707-.23969.08319-.34406l.11109-.44446c.01745-.06982.04272-.15429.073-.24572a5.76987,5.76987,0,0,1,.23255-.9765,10.93928,10.93928,0,0,1,.68286-1.55469,3.09388,3.09388,0,0,1,.8446-1.37958c.01-.02808.02808-.05243.03736-.08087a2.92057,2.92057,0,0,1,.17132-.33173,15.5125,15.5125,0,0,1,.77942-1.83929,4.21729,4.21729,0,0,1,.12335-.48047,8.39159,8.39159,0,0,1,1.038-2.059c.01629-.02283.03161-.03772.04773-.05908.04-.07929.08282-.158.12829-.23548a6.23558,6.23558,0,0,1,.44556-.87951c.07825-.17737.15332-.35511.23859-.53211.04168-.08654.09552-.18939.157-.29614.00745-.01959.01184-.03961.01941-.0592a10.51227,10.51227,0,0,1,.95007-1.85407,4.81953,4.81953,0,0,1,.99042-1.46631c.02435-.02447.04846-.032.07281-.05291l.01044-.01893a2.71159,2.71159,0,0,1,.96881-1.48455c.01459-.00916.02613-.00861.04041-.01679a1.27345,1.27345,0,0,1,1.00494-.69293h.11109a.33839.33839,0,0,1,.138.03021.25693.25693,0,0,1,.08416-.01758.09717.09717,0,0,1,.08039-.00525c.01513.00647.02313.02143.03424.03278.03662-.0033.07281-.01068.10888-.0144l.00184-.00006a.11312.11312,0,0,1,.01763-.00049l.047-.00122a.70366.70366,0,0,1,.4751.43036q.07316.21139.14636.42272a4.04107,4.04107,0,0,1,.08069,1.13447l-.05334.45465a6.142,6.142,0,0,1,.05334.98974,8.47187,8.47187,0,0,1-.07031.96216,6.24183,6.24183,0,0,1,.07031,1.03784v2.29694a3.78525,3.78525,0,0,1,.1106,1.05877l.00006.00025c.071.25488.15777.50842.207.73505a10.08768,10.08768,0,0,1,.23492,1.74652,8.69785,8.69785,0,0,1-.03369,1.03564,2.95457,2.95457,0,0,1,.37006,1.79352V615.133c.04217,2.84332.55444,5.67822-.07764,8.4981-.01239.0553-.03052.13373-.05042.21686q-.03478.554-.08923,1.10858a2.28477,2.28477,0,0,1,.10315.62867c.01215,1.69555.14972,3.39758.04309,5.09222-.02222.3529-.06317.7077-.10565,1.06177a2.01361,2.01361,0,0,1,.037.32116c.05578,2.3863.19824,4.4748.25329,6.6399.02527.99377.10895,1.96612.189,2.97436a11.97428,11.97428,0,0,1,.07538,1.50812C162.615,643.4197,162.66665,644.697,162.57992,643.81038Z" transform="translate(-55.97367 -18.11856)"/><path class="cls-1" d="M715.87874,642.42806a9.08288,9.08288,0,0,0-3.84509-7.6842c-9.63385-7.02344-21.66473-3.08057-25.17853,8.283-.53936,1.74438-.96966,3.52215-1.36883,5.30383-.27185,1.21332-.45569,2.16308-1.204,2.58356-1.06171.59661-2.57294-.25812-3.00574-.48664-4.23163-2.23462-16.95105-3.85852-25.25031-1.1582a33.94754,33.94754,0,0,0-11.44091,6.46875c-17.64057,14.89026-22.277,34.80823-19.45771,56.85254,1.26783,9.91254,4.7519,19.071,12.80793,25.75854,10.90124,9.04963,23.46911,7.12189,31.19085-4.64074,3.2052-4.88239,5.07843-10.319,7.116-15.7049,2.80652-1.6925,2.15308.7804,2.16718,1.954a122.92368,122.92368,0,0,0,1.13165,18.16431,10.00159,10.00159,0,0,1,.7821,2.87311c-.28375,7.42981,9.1944,13.51513,17.90515,13.04907,5.53656-.29633,7.61414-4.403,7.61939-14.57507.00012-.33313.00806-.66651-.00116-.99927a280.3618,280.3618,0,0,1,7.26611-72.29389A93.76831,93.76831,0,0,0,715.87874,642.42806Zm-35.28,32.86414c-.01728.12359-.03766.24841-.066.375-.04956.22125-.10431.43975-.15564.66015a38.712,38.712,0,0,1-1.02954,4.52509,5.16244,5.16244,0,0,1-.62537,1.42456c-.03589.40491-.0918.74432-.11536.8717a8.95284,8.95284,0,0,1-.79443,2.5304,8.09423,8.09423,0,0,1-1.077,1.28619c-.19336.40082-.3797.80139-.59448,1.204a4.17672,4.17672,0,0,1-.48022.734,4.90056,4.90056,0,0,1-.74164,1.45819,16.97443,16.97443,0,0,1-.591,1.78656,3.29485,3.29485,0,0,1-.866,1.41547c-.08765.168-.18006.34179-.28406.5318-.05115.0935-.10242.17254-.15363.25134a13.24234,13.24234,0,0,1-1.35052,2.87042,2.479,2.479,0,0,1-.08649.33838q-.29635.8519-.59259,1.70374a3.52745,3.52745,0,0,1-.78491,1.37957,4.867,4.867,0,0,1-.3963.90961,4.94966,4.94966,0,0,1-.38556.92786,5.17384,5.17384,0,0,1-.65924,1.30822c-.022.04474-.04358.08991-.06555.13465a20.926,20.926,0,0,0-1.14356,2.88049c-.324,1.0116-.62127,2.03125-1.0426,3.00836-.45245,1.04926-1.00739,2.05133-1.4574,3.10346-1.22076,2.85461-1.96039,6.1051-3.51959,8.84234a15.17677,15.17677,0,0,1-2.39166,4.97284,7.99878,7.99878,0,0,1-1.49884,1.22858c-.04785.04742-.09027.10156-.13916.14764a3.47593,3.47593,0,0,1-4.30512.62122,9.97059,9.97059,0,0,1-3.48388-4.34668c-.13788-.28107-.2522-.57349-.37537-.86169a3.1379,3.1379,0,0,1-.33716-.74976c-.00915-.03253-.00921-.0669-.01684-.09973-.105-.27741-.20032-.55866-.29633-.83972-.00653-.012-.01373-.02015-.02014-.03278-.0058-.01147-.0083-.023-.01392-.03448a1.0342,1.0342,0,0,1-.06939-.10444,1.44663,1.44663,0,0,1-.1355-.3612c-.01435-.02564-.02143-.05261-.0343-.07849-.04645-.10279-.09949-.20874-.13739-.31409-1.16663-2.05249-1.34583-5.05646-1.62415-7.14923a33.801,33.801,0,0,1-.29932-4.15155,4.05723,4.05723,0,0,1-.03155-.64514,2.237,2.237,0,0,1-.08631-.68811c.00007-.06085.00287-.12189.00336-.18286a3.49308,3.49308,0,0,1-.03113-.48377c.00354-.2262.04139-.43732.06372-.65448a2.53321,2.53321,0,0,1-.11926-1.09552c.01142-.22754.03644-.45178.05292-.678l-.01862.01172c.00342-.04028.01026-.07831.0138-.11853a17.478,17.478,0,0,1,.485-5.91028c.21747-.94732.47821-1.87671.76862-2.79895a18.11723,18.11723,0,0,1,1.82269-5.82184,2.63283,2.63283,0,0,1,.58612-.83374l.59711-1.55237a5.637,5.637,0,0,1,.43225-.90344,16.915,16.915,0,0,1,1.15424-2.14117c.01452-.02967.027-.06366.04174-.09278a22.45656,22.45656,0,0,1,2.45282-4.54559,4.00841,4.00841,0,0,1,.46674-1.1,13.74679,13.74679,0,0,1,1.55963-2.012,5.16656,5.16656,0,0,1,.47858-.43322l.076-.09534a9.60674,9.60674,0,0,1,.96277-1.5166,30.41242,30.41242,0,0,1,3.26574-3.63575c.28046-.24047.57605-.47607.87342-.71081a7.39431,7.39431,0,0,1,.911-.83453,29.522,29.522,0,0,1,5.08734-3.08368,15.45294,15.45294,0,0,1,4.14172-2.15357,12.313,12.313,0,0,1,1.3667-.51379,1.75771,1.75771,0,0,1,.43378-.17761,2.05893,2.05893,0,0,1,.35229-.04352c2.13782-.52069,4.6015-.504,5.52307,1.347a3.79746,3.79746,0,0,1,.44367.74091.97.97,0,0,1,.27716.35236C682.07607,669.29293,681.53963,672.42135,680.59878,675.2922Z" transform="translate(-55.97367 -18.11856)"/><path class="cls-1" d="M518.79655,688.22307c3.86133-9.374,7.05612-19.0412,12.00633-27.93845,4.71212-8.46931,11.30823-13.99357,21.67585-12.89936,11.22742,1.185,18.07249,9.53119,18.52623,22.26372.41662,11.68836-1.28515,23.25627-1.9414,34.88294-.59122,10.47517-1.33572,20.93483-.01688,31.40377,1.08549,8.61692-1.05727,12.82724-7.227,14.17035-7.868,1.71288-15.17232-2.31778-17.24535-9.80261-1.9673-7.1032-2.337-14.44689-2.52245-21.77489-.30819-12.1745,1.16192-24.25583,2.02983-36.36926.23744-3.31436.23647-6.65074.20563-9.97571a2.82973,2.82973,0,0,0-.96756-2.13851c-1.04618-.59848-1.90574.3192-2.40208,1.16408-1.85046,3.14985-3.954,6.21146-5.338,9.56468-6.02213,14.59035-12.17636,29.138-16.46379,44.38155a41.63522,41.63522,0,0,0-1.785,11.77958c.0543,5.899-3.42824,9.5418-9.30691,10.25568-9.2622,1.12478-16.45179-3.61073-18.40382-12.87136-2.102-9.972-2.16872-20.1971-1.78476-30.32329.649-17.11644,1.42781-34.246,4.02265-51.21863.30165-1.973.626-3.94988,1.08805-5.88958,2.67666-11.23621,11.75377-15.74076,22.374-11.10325,5.28988,2.31,4.90916,7.1555,4.609,11.55437-.90627,13.28287-2.1295,26.544-3.22915,39.81359a5.53629,5.53629,0,0,0,.63525,3.642C517.7037,690.85185,518.79655,688.22307,518.79655,688.22307Z" transform="translate(-55.97367 -18.11856)"/><path class="cls-1" d="M267.80971,723.12026c-3.23193-2.69287-6.569-1.59485-9.3786,1.12939-2.14691,2.08161-4.03857,4.43927-6.26849,6.4206-6.37879,5.66772-10.553,4.99713-14.6839-2.34845-4.51325-8.02533-6.06421-16.80713-6.34418-25.89978-.0661-2.14771.389-3.00818,2.89905-3.3888,19.38409-2.939,31.21-18.68347,28.88525-38.08777-1.46948-12.26562-10.1502-19.77154-22.51611-19.176a31.457,31.457,0,0,0-24.4115,12.6629c-9.05487,11.77985-13.12762,25.23188-12.87219,43.74842.469,11.85174,3.42175,26.67993,12.94256,39.52331,13.244,17.86566,39.894,15.24884,52.69434-5.49981C270.67086,729.10042,270.78389,725.59847,267.80971,723.12026Zm-35.18207-39.66718a2.01778,2.01778,0,0,1,.29419-.66235c.058-.26044.12311-.51947.17237-.78162L233.09261,682a6.62734,6.62734,0,0,1,.28577-1.76569,6.44249,6.44249,0,0,1,.131-1.176,8.9508,8.9508,0,0,1,.52545-2.6004c.23816-.73859.4682-1.47144.68433-2.21546a20.43223,20.43223,0,0,1,1.736-3.57574c1.13684-2.19135,1.893-4.52069,3.29376-6.57526a15.553,15.553,0,0,1,3.98981-4.19861.93073.93073,0,0,1,.17084-.15106l.061-.02576a1.6464,1.6464,0,0,1,.34448-.2,1.49382,1.49382,0,0,1,.54541-.29589l.19764-.02656a1.51121,1.51121,0,0,1,.23791-.032,3.532,3.532,0,0,1,.40881-.05395.38593.38593,0,0,1,.04834.00024c.03473.00238.06885.01013.10346.01379,3.97961-.86169,4.1828,5.276,3.56848,8.37073a1.41431,1.41431,0,0,1,.07489.28534c.18829,2.70722-1.16956,5.28558-2.54571,7.563a6.88468,6.88468,0,0,1-2.4491,3.764,13.11436,13.11436,0,0,1-3.15552,3.15338,1.24354,1.24354,0,0,1-.381.16864c-.43817.36285-.89118.71844-1.37244,1.0722a7.70888,7.70888,0,0,1-4.61206,1.7157l-.00592.00171a1.28734,1.28734,0,0,1-.84277.12811c-.0213.00074-.04.0069-.06146.00727A1.51822,1.51822,0,0,1,232.62764,683.45308Z" transform="translate(-55.97367 -18.11856)"/><path class="cls-1" d="M521.66954,148.72579c-31.59964,13.95893-41.87529,40.933-45.79157,71.92747-.45614,3.60961.3182,7.99765-1.495,10.63407-1.74028,2.53036-6.45722,1.24542-9.8065,2.01468-11.23687,2.58087-21.18436,7.85149-30.22213,14.82651-2.591,1.99959-4.59362,2.14788-7.59326,1.014-30.19614-11.41458-59.77248-11.62043-88.178,5.57377a85.82559,85.82559,0,0,0-21.51752,18.44586c-3.16983,3.79666-4.10088,2.49223-5.79987-.98715-13.097-26.82125-27.74455-52.719-46.24439-76.2564-6.08329-7.73984-12.558-15.177-20.72284-20.78673-3.03307-2.08391-3.64826-4.05465-2.58706-7.44968,5.30675-16.97764,17.0687-27.75723,32.81588-34.7928,11.53961-5.15571,23.76745-7.58434,36.27492-8.35575a223.34849,223.34849,0,0,1,53.19142,2.94044c3.422.61185,5.04538-.53667,7.01417-2.92364,12.22493-14.82132,26.796-26.35048,45.73516-31.33576,21.35214-5.62042,40.82884-.512,59.0192,10.9418C494.06023,115.67815,508.34787,131.3833,521.66954,148.72579Z" transform="translate(-55.97367 -18.11856)"/><path class="cls-1" d="M273.8536,699.73112c.14956-17.72463,3.62816-31.56022,11.89111-44.0272a31.95741,31.95741,0,0,1,36.81974-12.69922c10.99114,3.76707,16.96428,20.1359,10.99712,30.19119-2.20822,3.72117-5.5312,5.51229-9.69147,4.19639-4.18989-1.32523-4.39476-5.02358-3.83937-8.68471.567-3.73759,1.20793-8.43442-2.49955-9.79785-2.97606-1.09439-4.78158,3.53971-6.25885,6.077-11.53193,19.80638-13.73432,40.3962-3.94157,61.5432,4.46966,9.65207,9.71914,10.23548,17.02992,2.48406,1.82666-1.93677,3.53372-3.99821,5.46808-5.81886,2.46738-2.32217,5.53372-2.75218,8.22407-.81882a6.06042,6.06042,0,0,1,2.07169,7.96315c-7.35149,15.26523-31.813,27.597-49.21748,11.86453C277.40525,729.99931,274.79946,713.745,273.8536,699.73112Z" transform="translate(-55.97367 -18.11856)"/><path class="cls-1" d="M735.76185,453.9357c-.708,9.35075-3.53991,18.191-7.02357,26.77654-12.47113,30.73487-34.06068,53.04085-63.00871,68.86379-18.68346,10.21242-38.7725,14.94128-59.5939,16.43535-18.8866,1.35531-37.54026,3.12562-55.89341,8.2317-9.12111,2.53758-19.19741,3.31375-28.05284-.44038-19.35684-8.206-40.53081-13.237-55.24083-30.22675A128.09445,128.09445,0,0,1,451.434,521.63237c-1.82968-3.312-.5766-3.71523,2.55185-3.95238,52.114-3.95125,98.78821-21.27383,138.11537-56.57265,1.59931-1.43549,2.85922-3.37638,5.91341-1.83825,29.33977,14.77624,60.14966,16.52711,91.83038,9.95341a184.37011,184.37011,0,0,0,40.94586-13.95867C732.214,454.5957,733.53707,453.3306,735.76185,453.9357Z" transform="translate(-55.97367 -18.11856)"/><path class="cls-1" d="M583.04179,711.11713c.61316-17.13616,2.00539-34.21667,3.85317-51.25751.64382-5.9373,2.60917-11.39553,7.61937-15.18334,7.26072-5.48935,18.34041-2.40412,20.51285,5.63995a11.25136,11.25136,0,0,1,.22,4.434,633.52943,633.52943,0,0,0-4.785,82.19362c.05711,8.86326-2.4181,12.80124-8.02947,13.3741-7.96487.813-16.00421-4.50852-17.39253-11.8486A130.11473,130.11473,0,0,1,583.04179,711.11713Z" transform="translate(-55.97367 -18.11856)"/><path class="cls-1" d="M443.18761,710.46342q1.03209-25.44657,3.87934-50.75629c.67183-5.94267,2.67417-11.38857,7.72826-15.126,7.68717-5.68461,19.34072-1.83609,20.60027,6.868.2996,2.07065-.2678,4.27732-.50359,6.414a663.93749,663.93749,0,0,0-4.26491,78.742c.08139,9.24775-2.41927,13.22722-8.20673,13.72252-8.26055.70691-16.0076-4.76474-17.36639-12.49608A135.6962,135.6962,0,0,1,443.18761,710.46342Z" transform="translate(-55.97367 -18.11856)"/><path class="cls-2" d="M465.226,630.40208c-6.00406.04211-9.98686-3.18322-9.97934-8.08135.00753-4.89258,6.07263-9.92843,11.94545-9.91824a8.98136,8.98136,0,0,1,8.67774,8.55322C475.90126,626.395,471.43529,630.35857,465.226,630.40208Z" transform="translate(-55.97367 -18.11856)"/><path class="cls-2" d="M605.06746,630.40141c-6.05205.04308-9.90931-3.11714-9.89639-8.108.01286-4.96531,5.98709-9.92983,11.90483-9.89267a8.944,8.944,0,0,1,8.62417,8.577C615.75236,626.38093,611.26579,630.35729,605.06746,630.40141Z" transform="translate(-55.97367 -18.11856)"/><path class="cls-3" d="M410.25548,420.92405l2.02516-.2369a1.78662,1.78662,0,0,0,.17963-.03037,146.95333,146.95333,0,0,0,21.29006-5.93023,9.03044,9.03044,0,0,0,4.35834-3.04679c17.71295-23.74675,42.2245-36.25155,70.5114-42.275,6.30367-1.34233,12.67807-2.71778,19.20777-2.3979a22.92045,22.92045,0,0,0,3.01737-.032,100.78264,100.78264,0,0,1,17.96953.12649q.06222.006.12481.00675l3.62366.04492.8814.0204a15.24128,15.24128,0,0,1,2.864.33921l1.02857.22208,1.77778.47222,1.40823.35224a1.55529,1.55529,0,0,1,.23453.07933c3.83068,1.63995,7.98162,2.244,11.92478,3.52008a296.28075,296.28075,0,0,0,37.6711,8.17148c8.47388,1.53958,17.0587,2.09748,25.6168,2.89118l17.59944-.17127c4.953-.59247,9.97186-.65133,14.85222-1.832,18.14624-2.69726,31.75679-13.01765,43.365-26.36249,14.29392-16.43226,23.50053-34.969,21.45566-57.52184-1.54087-16.99462-9.90316-30.81227-20.93422-43.26448-2.02144-2.28189-4.11416-4.50044-6.18673-6.73662a1.70717,1.70717,0,0,1-.40436-1.70873,16.4212,16.4212,0,0,0,.23748-2.772c-.31594,1.34373.22427,2.57932-.70629,3.51677-1.82262-1.63294-.802-3.72433-.79692-5.591.03163-11.44582.70989-22.92327-1.99155-34.20311a2.30445,2.30445,0,0,0-.27364-.61242c-.80037-1.37511.17231-3.10022-.619-4.47713a2.14736,2.14736,0,0,1-.2476-.56745c-6.262-26.54117-20.33083-47.39185-44.54129-60.75888A102.71133,102.71133,0,0,0,624.518,129.0771c-.648-.18924-6.06243-1.087-7.312-1.29313-.17369-.02865-.34383-.04975-.51923-.06469a271.95386,271.95386,0,0,0-30.8904-1.05911c-1.968.05637-6.40749.32594-6.40749.32594l-5.08333.55556s-9.07133,1.44509-13.61061,1.56732c-2.51952.06784-5.12923.60876-7.71549.70519-2.36386-.06749-3.6944-.672-4.3589-1.56533l-.01614-.0217c-23.66932-33.26889-52.51289-59.57421-93.93094-68.0894-27.1514-5.58209-52.39149.82958-76.23993,14.11665-8.38645,4.67248-15.8703,10.672-23.89435,15.87032a3.037,3.037,0,0,1-1.20422.2367l-4.303.36936a1.92094,1.92094,0,0,1-.35873.0367c-3.8985.02447-7.713-.80918-11.57726-1.0915l-7.65154-.3982-11.383-.10443a12.60638,12.60638,0,0,0-1.44761.06952c-3.37777.35772-17.51624,1.85457-17.96037,1.89419-37.036,5.60736-65.80488,23.30144-83.56768,57.17669-1.2288,2.34345-1.61036,5.37572-4.27966,6.74384a1.7746,1.7746,0,0,1-1.28905.12185c-7.88907-2.20359-28.59516-1.347-37.68318.17877-14.8083,2.4861-28.59922,7.98156-40.34912,17.72716-7.83663,6.49984-14.86655,13.73828-19.40772,23.0476-.00734.22888-5.52146,11.92259-7.15594,24.41218a73.12476,73.12476,0,0,0,.67533,21.64993c.041.21616,2.90717,15.49671,3.5856,17.19529,6.78556,23.454,22.155,38.66188,44.83987,46.84217.04959.01788.10036.03377.15128.04741a80.34,80.34,0,0,1,8.79871,2.80912,1.74858,1.74858,0,0,1,.33445.18058c2.62988,1.78449,34.21791,1.9965,46.01436,1.95891,1.52027-.08805,3.0743.193,4.58021-.19849a1.55706,1.55706,0,0,0,.86393-.56755,2.67249,2.67249,0,0,0,.40179-.86445,1.65554,1.65554,0,0,1,.3812-.64682,27.63594,27.63594,0,0,0,7.30582-23.179,11.48713,11.48713,0,0,0-7.58279-9.6251c-1.689-.87573-37.249-5.23648-38.47658-5.77876-21.35555-4.37432-36.185-17.8244-33.47419-41.4843,2.16141-16.43962,18.22863-34.801,38.80583-38.61384,3.28573-.80779,11.70664.0964,11.77421.10894,3.36367.62391,6.83525.73193,10.04573,2.08834.06631.028.13208.05973.19563.09357,24.29751,12.938,41.92825,32.82406,57.04079,55.2394,10.55287,15.6523,18.82833,32.52331,25.88591,50.02217,1.2615,3.12773.79509,4.51694-2.37727,6.02315-25.44378,12.08039-45.99432,29.744-60.24134,54.2722-2.10409,3.62248-4.54843,4.92226-8.66922,5.11606a328.01564,328.01564,0,0,1-42.94382-1.13573,1.81023,1.81023,0,0,1-.60366-.15531q-.36946-.16959-.72874-.3603a1.74352,1.74352,0,0,0-.47918-.17679c-1.63839-.32255-3.36539-.215-4.918-.95022a1.80491,1.80491,0,0,0-.48411-.15645c-52.71533-8.41872-89.95226-39.23269-100.47931-92.08819-.4835-2.4276-1.133-4.82208-1.70522-7.232l-.078-.761c-.62321-8.60878-1.646-17.21071-1.79352-25.82767-.41564-24.27415,8.80173-45.46455,22.20568-64.97424,17.96215-26.14425,42.80648-43.73289,71.61494-56.12652,1.96714-.84627,3.74-1.5392,4.87852-3.80736,13.97649-27.84427,36.57756-45.92978,65.14419-57.10512A98.58961,98.58961,0,0,1,247.897,46.16051c.22746.02782,7.40261-1.24694,8.44471-1.27626.0438-.00123.08761-.00431.13117-.00905,16.06174-1.74793,48.37-1.32075,48.41732-1.31978,5.5983.11558,16.372,2.10871,18.48358,2.50867a4.753,4.753,0,0,1,.71176.19673c8.79684,3.135,16.20825-.50549,23.94655-4.38644a130.23993,130.23993,0,0,1,33.0606-11.584c.38879-.077,24.55766-5.14947,36.797-6.32418,11.36645-1.09093,33.18045,1.13421,35.52544,1.3801a3.313,3.313,0,0,1,.41128.06957c12.51409,2.9098,24.95855,5.94486,36.77353,11.264a164.58885,164.58885,0,0,1,41.17772,26.53254,11.25805,11.25805,0,0,0,8.02563,2.96059,193.9488,193.9488,0,0,1,47.725,6.11662s5.57521,1.465,6.70954,1.917a5.0449,5.0449,0,0,0,.76637.22763C615.746,79.09182,634.80656,87.7238,652.584,99.25865c33.7487,21.89765,55.87061,52.57047,67.69816,90.83931a19.5437,19.5437,0,0,0,6.49994,10.07186c19.3463,15.99058,30.77569,37.14754,38.49593,60.62709,3.17357,9.65187,4.68421,19.67582,6.9015,29.54219l-.01-.00735q.55563,5.447,1.11139,10.894c1.61467,11.97757,2.3021,23.9563.05533,35.93861-.00747.03984-.01609.07962-.02573.119q-.98646,4.0254-1.97283,8.05077c-.86285-.97083-.45483-2.1548-.56008-3.25255.02289.94925-.23353,1.94653.25562,2.81567a1.6767,1.6767,0,0,1,.19562,1.116c-6.987,39.20294-32.14008,83.95915-86.84481,91.158.065-.00859-6.44462,1.00563-8.07167,1.2591a5.363,5.363,0,0,1-.74044.06326l-3.78035.0644q-.047.0008-.09408-.00089l-2.00853-.07238-6.12847-.201-4.33449-.31749-7.463-.7037-2.10449-.17447q-.07728-.0064-.15378-.01955l-2.67476-.45955q-.0762-.0131-.151-.03279l-3.61964-.95253-1.605-.41148c-6.97555-2.12188-14.25126-2.942-21.26131-4.91436A154.3176,154.3176,0,0,1,590.691,420.26594a1.76562,1.76562,0,0,1-.32007-.19107,8.83093,8.83093,0,0,0-4.90931-1.86366,1.84053,1.84053,0,0,0-1.46354.60066c-27.23287,30.39238-60.32307,51.41718-99.7751,62.25545-.71667.1969-5.62.92489-5.83871.98831-10.19765,2.9573-20.67718,3.4218-31.18071,3.14112-25.15583-.67208-48.15979-8.42929-69.4357-21.65746-1.85121-1.23373-7.54566-.48373-7.54566-.48373l-7.27778.91666s-21.05,1.98294-26.15477,1.29524a1.40371,1.40371,0,0,0-.1614-.01267c-23.8468-.52653-46.63683-4.64111-65.212-21.13722-11.81978-10.49682-16.98165-24.27121-17.44783-39.925,0,0-.25932-3.05827-.30238-6.27472a50.09326,50.09326,0,0,1,.74294-6.67049,25.73748,25.73748,0,0,1,2.49808-7.67266c10.56061-20.65422,25.50826-37.25109,47.47928-46.65571a14.12031,14.12031,0,0,1,2.24125-.72453c.47653-.11521.94542-.264,1.41429-.409l6.04322-1.67152,3.09351-.87785,3.17162-.94832a9.68469,9.68469,0,0,1,1.93314-.33929l.57158-.04277a14.95577,14.95577,0,0,1,2.2734.00735,10.92506,10.92506,0,0,0,4.93479-.571,1.82263,1.82263,0,0,0,.9624-1.2166c2.18925-8.414,4.493-16.77764,8.70919-24.48729,9.46652-17.31031,23.23842-28.27119,43.45934-29.92266,6.53525-.5337,12.86668.555,19.176,1.90268a23.34186,23.34186,0,0,1,3.889,1.24586c2.71093,1.10016,5.6984,1.31144,8.42408,2.36415a1.08631,1.08631,0,0,0,.12227.03919,53.79684,53.79684,0,0,1,12.43127,4.89061c3.04374,1.6598,5.07859,1.27543,7.85079-.87552,19.25905-14.94319,40.94128-23.29027,65.55168-22.76236,3.76789.08082,6.4388.3174,7.82141.46923a14.21948,14.21948,0,0,1,1.94066.35057l.40817.10316,3.09723.84722s5.65277,1.55556,5.625,1.48611c0,0,2.14763.46052,4.58333,1.06945l.88889.22222.63146.23706c13.79527,3.9449,24.46307,11.31214,35.10073,19.81624,6.44734,5.15413,13.73043,6.11371,21.54552,4.07308a2.0595,2.0595,0,0,0,.22721-.0748c1.3918-.543,2.96863-.71694,3.98228-2.014,8.17038-9.74722,7.04333-19.09788-.97158-28.88874-18.77324-22.933-44.40983-30.8552-72.06058-34.7846-4.27607-.60767-5.00634-2.001-4.46244-6.02431,3.47757-25.72537,18.25557-41.51439,42.462-49.23275,1.93716-.58019,4.04759-.63941,5.78566-1.81824a1.87407,1.87407,0,0,1,.622-.28419,65.8154,65.8154,0,0,1,13.1863-1.90928,1.88632,1.88632,0,0,1,.70634.12869c3.447,1.28878,7.05042-.16539,9.12448.35195-2.15623-.31324-5.89409.79761-9.45826-.48146,4.26412-1.70116,8.98326-.02691,13.23921-1.789l-.08118-.007c4.9645.06806,9.93838-.03341,14.89167.23881a75.16953,75.16953,0,0,1,31.27142,8.19688c14.105,7.44966,24.35468,18.35175,27.79525,34.58469.75,3.53877,2.99011,6.68889,2.90028,10.45821a1.6956,1.6956,0,0,1-.23243.74162c-.791,1.49351.1427,3.24189-.44355,4.76989.55082-1.38941-.44495-3.08762.76955-4.34465,2.455,11.03333,2.009,22.172.46641,33.20476-.6248,4.46874.74816,6.93469,3.88023,9.75535,10.58257,9.53052,19.66389,20.28271,24.84547,33.83371a12.46993,12.46993,0,0,1,.70254,2.41945l.11111.42592.11112.33334c4.091,11.63632.29413,22.06476-10.47219,30.59583-7.49511,5.939-16.13409,9.73261-25.19139,12.44666-1.99564.598-5.51708,1.53276-7.28968,1.99821a13.474,13.474,0,0,1-2.18872.39219,89.80391,89.80391,0,0,1-17.19777-.09113c-.03167-.00316-.06365-.00495-.09548-.00539-6.72536-.09287-13.114-1.97-19.33555-4.1905-27.54-9.82918-56.07411-11.80238-84.95978-11.09815-6.63216.16167-13.26253.60748-19.88774.92177-25.31919,1.201-45.8406,13.49873-65.48022,27.82824-5.13762,3.74851-10.72762,7.03175-14.89734,12.02089-.9685,1.484-2.56056,2.2707-3.82242,3.42663-5.52911,5.00128-11.35658,9.45017-18.91636,10.69112a13.45653,13.45653,0,0,1-2.27405.1519l-7.12815-.05053a11.36209,11.36209,0,0,1-3.62551-.57792c-7.16033-2.46876-11.06845-8.37961-14.24315-14.95557-3.36263-6.96508-14.476-11.71124-23.88376-9.986-7.68236,1.40877-12.52918,7.68275-13.85171,16.23041-1.697,10.96769,4.427,18.25587,10.80523,25.56645,7.13771,8.181,16.26335,13.50661,26.05587,17.82548q.06419.0283.13039.052l6.389,2.28584a1.77371,1.77371,0,0,0,.40124.09277l6.03479.67173q.06942.00773.13927.01l7.05579.22658q.06271.002.12545-.00041l7.60395-.294,6.27626-.09277A22.95133,22.95133,0,0,0,410.25548,420.92405Z" transform="translate(-55.97367 -18.11856)"/><path class="cls-4" d="M453.51076,231.139c-7.25373,2.13639-13.63806,5.98368-19.65751,10.40235-2.654,1.94817-4.9347,2.53048-8.0991,1.17989-7.643-3.26209-15.878-4.47161-23.92651-6.30781a64.656,64.656,0,0,0-10.13579-.27048c-3.52992.17781-7.05883.1721-10.58588.0063-1.43627-.1742-8.4393.61-8.4393.61-1.68519.2037-3.87419.69128-3.87419.69128l-1.73692.23a11.82855,11.82855,0,0,0-2.43056.44444l-1.36689.33167c-.95255.23777-3.25288,1.05357-5.52753,1.65994-15.00987,3.99993-27.6712,12.13908-38.61134,22.87127-3.70467,3.63423-4.76411,2.64183-6.72628-1.238-11.807-23.34581-24.90194-45.92028-40.87-66.71764-6.50353-8.47043-13.568-16.43239-21.99119-23.046-2.28573-1.7947-2.38468-3.39257-1.426-5.9713,6.62311-17.81543,21.22722-25.93036,37.9153-31.47431,6.47678-2.15164,13.26559-3.04323,19.98024-4.18,4.1098-1.16618,11.6098-.66618,12.15866-.95289,2.17336-.37995,5.48511-.01109,9.36784-.01894l1.19441.02788,1.18056.11111,1.34722.08333,12.69192.69472,17.81464,2.0671s4.37677.25452,6.04437,1.23674c3.89754,1.12929,4.47655-2.35372,6.09305-4.39475a27.34846,27.34846,0,0,1,3.30217-3.83488c9.23724-9.438,19.07348-18.05073,31.35756-23.42562a60.668,60.668,0,0,1,12.26553-3.79962c7.10476-2.46785,16.6252-3.127,21.403-1.48813l1.29673.38431.93072.19869,1.42223.3451,1.49847.36819c13.93578,2.55877,25.05094,9.861,35.95591,18.45939a180.7791,180.7791,0,0,1,27.04932,27.08887c1.22337,1.47781,3.22163,2.77085.0699,4.521-21.31972,11.83877-31.42433,31.41405-36.98749,54.07891a95.35691,95.35691,0,0,0-2.82723,16.17021c-.31932,4.62626-.27111,9.6784-6.85387,10.135C460.34654,229.29242,456.99111,230.4518,453.51076,231.139Z" transform="translate(-55.97367 -18.11856)"/><path class="cls-5" d="M725.37313,464.24109c2.65634,1.73031.86712,3.817.29857,5.63372-10.77266,34.42291-33.22933,58.80686-64.68578,75.51337-9.29737,4.93786-18.88471,8.94894-29.2639,10.905-1.74132.728-4.63182.53291-5.60437,1.129l-3.24183,1.05621-2.34249.84706-.87843.30327-1.13987.16732-1.234.08366-1.0109.12549-1.02785.103-10.15966.55661-1.42787.09446c-9.57129,1.25586-19.2007.70942-28.80487.9735-3.96982.10917-7.60481,1.97046-11.24053,3.51157a17.96713,17.96713,0,0,1-7.1794,2.0228,6.40858,6.40858,0,0,0-.86134.10687c-4.51472.89345-9.147,1.09728-13.63229,2.16049a10.59889,10.59889,0,0,1-3.69781.18288,22.18334,22.18334,0,0,0-6.11739.02436,11.04577,11.04577,0,0,1-4.01058-.03169c-3.24312-.68517-6.36153-1.90189-9.63684-2.45846-10.98623-6.23287-23.89954-7.99983-34.488-15.30665-10.11582-6.98062-18.08691-15.8581-25.0539-25.80593-1.34456-2.09133-.80408-3.11009,1.6988-3.40705,2.69412-.31964,4.36806-.54113,4.36806-.54113,5.18058-1.24674,6.06536-1.20261,6.06536-1.20261s1.67917-.26767,2.17433-.31505c.24942-.02387.49633-.05764.743-.10141,1.48016-.26257,3.05212-.41122,3.84274-.47557a5.82188,5.82188,0,0,0,.99551-.16895c.47522-.12334,1.12945-.27829,1.58575-.34695a7.08652,7.08652,0,0,0,.9406-.19513l2.38207-.6976c.16-.02883.82238-.15935,1.44387-.28248a20.36285,20.36285,0,0,1,2.42546-.33071l.49516-.03735,3.963-.5,6.74183-1.13965,2.58295-.33537c3.50118-.71543,7.07522-1.16639,10.31017-2.848,12.60828-4.79232,25.29935-9.39487,37.27591-15.68361,15.71851-8.25343,30.46226-17.96157,43.61225-29.94875,2.06036-1.87816,3.57636-2.00353,6.08478-.82691,8.5617,4.01612,17.40186,7.313,26.87389,8.52619l.66668.079c2.296.51045,14.08619,3.00908,21.34417,2.73217a12.155,12.155,0,0,1,1.82085.06076l.1266.01423a115.37272,115.37272,0,0,0,37.20189-2.83645l1.62191-.35841s10.23843-1.8348,15.33938-3.67531q8.26347-2.59167,16.52694-5.1834A40.08913,40.08913,0,0,0,725.37313,464.24109Z" transform="translate(-55.97367 -18.11856)"/></svg>