<svg id="_x31_-outline-expand" enable-background="new 0 0 64 64" height="512" viewBox="0 0 64 64" width="512" xmlns="http://www.w3.org/2000/svg"><path d="m49 26h13v-2h-12v-10c0-.553-.447-1-1-1-1.958 0-3.728.81-5 2.111v-8.111c0-2.757-2.243-5-5-5h-26c-2.757 0-5 2.243-5 5v17.556c-.591-.344-1.268-.556-2-.556-2.206 0-4 1.794-4 4 0 1.201.542 2.266 1.382 3-.84.734-1.382 1.799-1.382 3s.542 2.266 1.382 3c-.84.734-1.382 1.799-1.382 3s.542 2.266 1.382 3c-.84.734-1.382 1.799-1.382 3 0 2.206 1.794 4 4 4 .732 0 1.409-.212 2-.556v7.556c0 2.757 2.243 5 5 5h26c2.757 0 5-2.243 5-5v-7h18v-2h-18v-28c0-2.415 1.721-4.435 4-4.899v9.899c0 .553.447 1 1 1zm-36-22h26c1.654 0 3 1.346 3 3v1h-32v-1c0-1.654 1.346-3 3-3zm-9 24c0-1.103.897-2 2-2s2 .897 2 2-.897 2-2 2-2-.897-2-2zm0 6c0-1.103.897-2 2-2s2 .897 2 2-.897 2-2 2-2-.897-2-2zm0 6c0-1.103.897-2 2-2s2 .897 2 2-.897 2-2 2-2-.897-2-2zm2 8c-1.103 0-2-.897-2-2s.897-2 2-2 2 .897 2 2-.897 2-2 2zm33 12h-26c-1.654 0-3-1.346-3-3v-1h32v1c0 1.654-1.346 3-3 3zm3-6h-32v-44h32v10z"/><path d="m13 24h10c.553 0 1-.447 1-1v-8c0-.553-.447-1-1-1h-10c-.553 0-1 .447-1 1v8c0 .553.447 1 1 1zm1-8h8v6h-8z"/><path d="m39 27h-10c-.553 0-1 .447-1 1v8c0 .553.447 1 1 1h10c.553 0 1-.447 1-1v-8c0-.553-.447-1-1-1zm-1 8h-8v-6h8z"/><path d="m26 14h14v2h-14z"/><path d="m26 18h14v2h-14z"/><path d="m26 22h10v2h-10z"/><path d="m23 40h-10c-.553 0-1 .447-1 1v8c0 .553.447 1 1 1h10c.553 0 1-.447 1-1v-8c0-.553-.447-1-1-1zm-1 8h-8v-6h8z"/><path d="m26 40h14v2h-14z"/><path d="m26 44h14v2h-14z"/><path d="m26 48h2v2h-2z"/><path d="m12 27h14v2h-14z"/><path d="m12 31h14v2h-14z"/><path d="m12 35h14v2h-14z"/><path d="m38 22h2v2h-2z"/><path d="m30 48h2v2h-2z"/><path d="m34 48h2v2h-2z"/><path d="m38 48h2v2h-2z"/></svg>