<svg height="512pt" viewBox="-165 0 512 512.001" width="512pt" xmlns="http://www.w3.org/2000/svg"><path d="m98.453125 177.871094v-26.515625c0-4.140625-3.355469-7.5-7.5-7.5-4.140625 0-7.5 3.359375-7.5 7.5v26.515625c0 4.140625 3.359375 7.5 7.5 7.5 4.144531 0 7.5-3.359375 7.5-7.5zm0 0"/><path d="m90.953125 326.628906c-4.140625 0-7.5 3.359375-7.5 7.5v26.515625c0 4.140625 3.359375 7.5 7.5 7.5 4.144531 0 7.5-3.359375 7.5-7.5v-26.515625c0-4.140625-3.355469-7.5-7.5-7.5zm0 0"/><path d="m168.433594 99.734375c-5.390625-4.824219-8.480469-11.742187-8.480469-18.976563v-55.953124c-.003906-13.675782-11.128906-24.804688-24.808594-24.804688h-88.382812c-13.675781 0-24.804688 11.128906-24.804688 24.804688v55.953124c0 7.234376-3.089843 14.152344-8.480469 18.976563-8.5625 7.667969-13.476562 18.65625-13.476562 30.152344v252.226562c0 11.496094 4.914062 22.488281 13.476562 30.152344 5.390626 4.828125 8.480469 11.746094 8.480469 18.976563v55.953124c0 13.675782 11.128907 24.804688 24.804688 24.804688h88.382812c13.679688 0 24.804688-11.125 24.804688-24.804688v-55.953124c0-7.230469 3.09375-14.148438 8.480469-18.976563 8.566406-7.667969 13.476562-18.65625 13.476562-30.152344v-252.226562c0-11.496094-4.910156-22.484375-13.472656-30.152344zm-1.527344 282.378906c0 7.234375-3.089844 14.152344-8.480469 18.976563-8.5625 7.667968-13.476562 18.660156-13.476562 30.152344v55.953124c0 5.40625-4.398438 9.804688-9.804688 9.804688h-88.382812c-5.40625 0-9.804688-4.398438-9.804688-9.804688v-55.953124c0-11.492188-4.910156-22.484376-13.476562-30.152344-5.390625-4.824219-8.480469-11.742188-8.480469-18.976563v-252.226562c0-7.234375 3.089844-14.152344 8.480469-18.976563 8.566406-7.667968 13.476562-18.660156 13.476562-30.152344v-55.953124c0-5.40625 4.398438-9.804688 9.804688-9.804688h88.382812c5.40625 0 9.804688 4.398438 9.804688 9.804688v55.953124c0 11.496094 4.914062 22.484376 13.476562 30.152344 5.390625 4.824219 8.480469 11.742188 8.480469 18.976563zm0 0"/><path d="m149.875 120.460938c-10.632812-9.523438-44.75-10.554688-58.921875-10.554688s-48.285156 1.03125-58.921875 10.554688c-2.675781 2.394531-4.210938 5.832031-4.210938 9.425781v196.527343c0 4.144532 3.355469 7.5 7.5 7.5 4.140626 0 7.5-3.355468 7.5-7.5v-195.316406c4.070313-2.320312 19.230469-6.1875 48.132813-6.1875 28.90625 0 44.0625 3.867188 48.136719 6.1875v19.566406c0 4.144532 3.359375 7.5 7.5 7.5s7.5-3.355468 7.5-7.5v-20.777343c0-3.59375-1.535156-7.03125-4.214844-9.425781zm0 0"/><path d="m146.589844 178.082031c-4.140625 0-7.5 3.359375-7.5 7.5v195.320313c-4.074219 2.320312-19.230469 6.1875-48.136719 6.1875-28.902344 0-44.0625-3.867188-48.132813-6.1875v-19.566406c0-4.144532-3.359374-7.5-7.5-7.5-4.144531 0-7.5 3.355468-7.5 7.5v20.777343c0 3.59375 1.535157 7.03125 4.214844 9.425781 10.632813 9.523438 44.746094 10.550782 58.917969 10.550782 14.175781 0 48.289063-1.027344 58.921875-10.550782 2.679688-2.394531 4.214844-5.832031 4.214844-9.425781v-196.53125c0-4.140625-3.359375-7.5-7.5-7.5zm0 0"/><path d="m58.90625 252.316406c-1.289062 2.285156-1.289062 5.082032 0 7.367188 2.90625 5.152344 18.371094 31.019531 37.515625 34.425781 1.421875.253906 2.832031.378906 4.226563.378906 5.660156 0 11.054687-2.070312 15.796874-6.101562 4.632813-3.945313 7.226563-9.164063 7.5-15.09375.308594-6.683594-2.355468-12.960938-4.96875-17.292969 2.613282-4.335938 5.277344-10.613281 4.96875-17.292969-.273437-5.929687-2.867187-11.148437-7.5-15.09375-5.90625-5.023437-12.832031-7.007812-20.023437-5.726562-19.144531 3.410156-34.609375 29.277343-37.515625 34.429687zm40.144531-19.660156c2.785157-.496094 5.152344.238281 7.671875 2.382812 1.4375 1.222657 2.125 2.53125 2.230469 4.242188.289063 4.617188-3.507813 10.3125-4.574219 11.480469-2.847656 2.914062-2.878906 7.527343-.035156 10.441406 1.101562 1.203125 4.898438 6.898437 4.609375 11.515625-.105469 1.710938-.792969 3.019531-2.230469 4.242188-2.519531 2.144531-4.882812 2.878906-7.671875 2.382812-8.519531-1.515625-18.734375-13.683594-24.867187-23.34375 6.128906-9.660156 16.347656-21.828125 24.867187-23.34375zm0 0"/></svg>